# xmcd CD database file
#
# Track frame offsets:
#	182
#	13250
#	28690
#	43702
#	58760
#	75947
#	90410
#	106340
#	117492
#	126265
#	132102
#	141210
#	153567
#	168322
#	182957
#	199437
#
# Disc length: 2858 seconds
#
# Revision: 0
# Processed by: cddbd v1.5.2PL0 Copyright (c) Steve Scherf et al.
# Submitted via: CDex 1.70beta1
#
DISCID=de0b2810
DTITLE=Nat Gonella - Nat Gonella and His Georgians
DYEAR=1900
DGENRE=Jazz
TTITLE0=Gotta Pebble In My Shoe
TTITLE1=Solitude
TTITLE2=Blue Skies
TTITLE3=Begin The Beguine
TTITLE4=If I Did'nt Care, This Night, Ain't Comin' Out
TTITLE5='Taint What You Do It's The Way That You Do It
TTITLE6=He Stole My Heart Away
TTITLE7=St Louis Blues
TTITLE8=Meet Me Down In Sunset Vally
TTITLE9=Harlem Speaks
TTITLE10=Tiger Rag
TTITLE11=Never Break A Promise
TTITLE12=Music Maestro Please
TTITLE13=On The Sentimental Side
TTITLE14=The Spider and The Fly, Well Alright (Tonight's The Night)
TTITLE15=I'm In The Mood For Love, You're My Everything
EXTD=
EXTT0=
EXTT1=
EXTT2=
EXTT3=
EXTT4=
EXTT5=
EXTT6=
EXTT7=
EXTT8=
EXTT9=
EXTT10=
EXTT11=
EXTT12=
EXTT13=
EXTT14=
EXTT15=
PLAYORDER=
